HIERARCHY
ROOT hip
{
  OFFSET 0 0 0
  CHANNELS 6 Xposition Yposition Zposition Zrotation Yrotation Xrotation
  JOINT abdomen
  {
    OFFSET 0 20.6881 -0.73152
    CHANNELS 3 Zrotation Xrotation Yrotation
    JOINT chest
    {
      OFFSET 0 11.7043 -0.48768
      CHANNELS 3 Zrotation Xrotation Yrotation
      JOINT neck
      {
        OFFSET 0 22.1894 -2.19456
        CHANNELS 3 Zrotation Xrotation Yrotation
        JOINT head
        {
          OFFSET -0.24384 7.07133 1.2192
          CHANNELS 3 Zrotation Xrotation Yrotation
          JOINT leftEye
          {
            OFFSET 4.14528 8.04674 8.04672
            CHANNELS 3 Zrotation Xrotation Yrotation
            End Site
            {
              OFFSET 1 0 0
            }
          }
          JOINT rightEye
          {
            OFFSET -3.6576 8.04674 8.04672
            CHANNELS 3 Zrotation Xrotation Yrotation
            End Site
            {
              OFFSET 1 0 0
            }
          }
        }
      }
      JOINT rCollar
      {
        OFFSET -2.68224 19.2634 -4.8768
        CHANNELS 3 Zrotation Xrotation Yrotation
        JOINT rShldr
        {
          OFFSET -8.77824 -1.95073 1.46304
          CHANNELS 3 Zrotation Xrotation Yrotation
          JOINT rForeArm
          {
            OFFSET -28.1742 -1.7115 0.48768
            CHANNELS 3 Zrotation Xrotation Yrotation
            JOINT rHand
            {
              OFFSET -22.5879 0.773209 7.07136
              CHANNELS 3 Zrotation Xrotation Yrotation
              JOINT rThumb1
              {
                OFFSET -1.2192 -0.487915 3.41376
                CHANNELS 3 Zrotation Xrotation Yrotation
                JOINT rThumb2
                {
                  OFFSET -3.37035 -0.52449 3.41376
                  CHANNELS 3 Zrotation Xrotation Yrotation
                  End Site
                  {
                    OFFSET -1.78271 -1.18214 1.43049
                  }
                }
              }
              JOINT rIndex1
              {
                OFFSET -7.75947 0.938293 5.60832
                CHANNELS 3 Zrotation Xrotation Yrotation
                JOINT rIndex2
                {
                  OFFSET -2.54057 -0.884171 1.56538
                  CHANNELS 3 Zrotation Xrotation Yrotation
                  End Site
                  {
                    OFFSET -1.62519 -0.234802 1.16502
                  }
                }
              }
              JOINT rMid1
              {
                OFFSET -8.24714 1.18213 3.41376
                CHANNELS 3 Zrotation Xrotation Yrotation
                JOINT rMid2
                {
                  OFFSET -3.10165 -0.590103 1.0647
                  CHANNELS 3 Zrotation Xrotation Yrotation
                  End Site
                  {
                    OFFSET -2.48547 -0.328903 0.83742
                  }
                }
              }
              JOINT rRing1
              {
                OFFSET -8.82822 0.546677 1.51678
                CHANNELS 3 Zrotation Xrotation Yrotation
                JOINT rRing2
                {
                  OFFSET -2.60934 -0.819778 -0.0198488
                  CHANNELS 3 Zrotation Xrotation Yrotation
                  End Site
                  {
                    OFFSET -2.33842 -0.294052 0.168128
                  }
                }
              }
              JOINT rPinky1
              {
                OFFSET -8.27202 -0.0477905 -0.4584
                CHANNELS 3 Zrotation Xrotation Yrotation
                JOINT rPinky2
                {
                  OFFSET -1.82734 -0.647385 -0.700984
                  CHANNELS 3 Zrotation Xrotation Yrotation
                  End Site
                  {
                    OFFSET -1.69225 -0.51767 -0.607171
                  }
                }
              }
            }
          }
        }
      }
      JOINT lCollar
      {
        OFFSET 2.68224 19.2634 -4.8768
        CHANNELS 3 Zrotation Xrotation Yrotation
        JOINT lShldr
        {
          OFFSET 8.77824 -1.95073 1.46304
          CHANNELS 3 Zrotation Xrotation Yrotation
          JOINT lForeArm
          {
            OFFSET 28.1742 -1.7115 0.48768
            CHANNELS 3 Zrotation Xrotation Yrotation
            JOINT lHand
            {
              OFFSET 22.5879 0.773209 7.07136
              CHANNELS 3 Zrotation Xrotation Yrotation
              JOINT lThumb1
              {
                OFFSET 1.2192 -0.487915 3.41376
                CHANNELS 3 Zrotation Xrotation Yrotation
                JOINT lThumb2
                {
                  OFFSET 3.37035 -0.52449 3.41376
                  CHANNELS 3 Zrotation Xrotation Yrotation
                  End Site
                  {
                    OFFSET 1.78271 -1.18214 1.43049
                  }
                }
              }
              JOINT lIndex1
              {
                OFFSET 7.75947 0.938293 5.60832
                CHANNELS 3 Zrotation Xrotation Yrotation
                JOINT lIndex2
                {
                  OFFSET 2.54057 -0.884171 1.56538
                  CHANNELS 3 Zrotation Xrotation Yrotation
                  End Site
                  {
                    OFFSET 1.62519 -0.234802 1.16502
                  }
                }
              }
              JOINT lMid1
              {
                OFFSET 8.24714 1.18213 3.41376
                CHANNELS 3 Zrotation Xrotation Yrotation
                JOINT lMid2
                {
                  OFFSET 3.10165 -0.590103 1.0647
                  CHANNELS 3 Zrotation Xrotation Yrotation
                  End Site
                  {
                    OFFSET 2.48547 -0.328903 0.83742
                  }
                }
              }
              JOINT lRing1
              {
                OFFSET 8.82822 0.546677 1.51678
                CHANNELS 3 Zrotation Xrotation Yrotation
                JOINT lRing2
                {
                  OFFSET 2.60934 -0.819778 -0.0198488
                  CHANNELS 3 Zrotation Xrotation Yrotation
                  End Site
                  {
                    OFFSET 2.33842 -0.294052 0.168128
                  }
                }
              }
              JOINT lPinky1
              {
                OFFSET 8.27202 -0.0477905 -0.4584
                CHANNELS 3 Zrotation Xrotation Yrotation
                JOINT lPinky2
                {
                  OFFSET 1.82734 -0.647385 -0.700984
                  CHANNELS 3 Zrotation Xrotation Yrotation
                  End Site
                  {
                    OFFSET 1.69225 -0.51767 -0.607171
                  }
                }
              }
            }
          }
        }
      }
    }
  }
  JOINT rButtock
  {
    OFFSET -8.77824 4.35084 1.2192
    CHANNELS 3 Zrotation Xrotation Yrotation
    JOINT rThigh
    {
      OFFSET 0 -1.70687 -2.19456
      CHANNELS 3 Zrotation Xrotation Yrotation
      JOINT rShin
      {
        OFFSET 0 -36.8199 0.73152
        CHANNELS 3 Zrotation Xrotation Yrotation
        JOINT rFoot
        {
          OFFSET 0.73152 -45.1104 -5.12064
          CHANNELS 3 Zrotation Xrotation Yrotation
          End Site
          {
            OFFSET -1.1221 -3.69964 12.103
          }
        }
      }
    }
  }
  JOINT lButtock
  {
    OFFSET 8.77824 4.35084 1.2192
    CHANNELS 3 Zrotation Xrotation Yrotation
    JOINT lThigh
    {
      OFFSET 0 -1.70687 -2.19456
      CHANNELS 3 Zrotation Xrotation Yrotation
      JOINT lShin
      {
        OFFSET 0 -36.8199 0.73152
        CHANNELS 3 Zrotation Xrotation Yrotation
        JOINT lFoot
        {
          OFFSET -0.73152 -45.1104 -5.12064
          CHANNELS 3 Zrotation Xrotation Yrotation
          End Site
          {
            OFFSET 1.1221 -3.69964 12.103
          }
        }
      }
    }
  }
}
MOTION
Frames:	9
Frame Time:	0.00833333
51.1452 86.1178 -223.092 8.5412 12.4641 360.99 10.1926 5.78357 -4.30862 1.22359 -8.48501 -0.93876 3.84842 4.22518 1.62136 -21.5113 -17.4621 -0.829147 -0.0 0.0 0.0 -0.0 0.0 0.0 -9.48013e-14 -1.08045e-14 -5.14403e-13 80.4169 -1.99942 2.80234 -15.4445 -8.18909 28.4913 -0.255042 14.2683 2.04804 3.90462e-09 -8.10889e-09 4.63094e-10 6.7517e-09 -1.40218e-08 7.4766e-10 3.90463e-09 -8.10889e-09 4.63089e-10 7.73091 5.47488 0.417314 3.90463e-09 -8.10889e-09 4.63096e-10 2.90554 0.965183 0.102902 3.90463e-09 -8.10889e-09 4.63097e-10 10.2786 0.731801 0.0259123 3.90462e-09 -8.10889e-09 4.63104e-10 2.22167 -0.733487 -0.20892 -9.48553e-14 -1.07902e-14 -5.1476e-13 -72.5012 -7.66741 18.9737 15.3676 -8.11239 -28.3491 0.229088 13.5081 -1.93477 2.07141e-09 3.58975e-09 -1.82776e-09 3.55864e-09 6.21566e-09 -3.18968e-09 2.07141e-09 3.58975e-09 -1.82775e-09 -7.73091 5.47488 -0.417314 2.07141e-09 3.58975e-09 -1.82776e-09 -2.90554 0.965183 -0.102902 2.0714e-09 3.58975e-09 -1.82776e-09 -10.2786 0.731801 -0.0259123 2.07141e-09 3.58976e-09 -1.82777e-09 -2.22167 -0.733487 0.20892 -2.03217e-16 0.0 -3.88251e-19 7.70426 -9.75867 24.9574 -0.135176 34.8056 1.0743 -18.1046 -17.0842 -38.9027 2.03217e-16 0.0 3.88251e-19 -7.21718 -15.2042 -15.2077 0.16917 27.8354 -0.448298 0.884073 -10.8572 0.95608
51.1824 86.1196 -223.028 8.6991 12.0413 361.067 10.1204 5.82704 -4.25083 1.38057 -8.46558 -0.91118 3.84307 4.40958 1.77191 -21.3882 -17.6331 -0.524589 -0.0 0.0 0.0 -0.0 0.0 0.0 -1.2021e-14 -3.88171e-14 -4.14025e-13 80.5606 -2.87178 2.47827 -15.0204 -7.81966 27.6056 -0.300938 15.4256 2.22285 2.99957e-09 -6.66544e-09 1.91216e-10 5.18476e-09 -1.15241e-08 2.87696e-10 2.99958e-09 -6.66544e-09 1.91211e-10 7.73091 5.47488 0.417314 2.99957e-09 -6.66544e-09 1.91216e-10 2.90554 0.965183 0.102902 2.99957e-09 -6.66544e-09 1.91218e-10 10.2786 0.731801 0.0259123 2.99956e-09 -6.66543e-09 1.91224e-10 2.22167 -0.733487 -0.20892 -1.20733e-14 -3.87926e-14 -4.14298e-13 -72.3107 -7.56385 19.1981 15.3181 -8.06855 -28.2463 0.238983 13.7873 -1.97636 1.14815e-09 3.24848e-09 -1.95169e-09 1.96101e-09 5.62319e-09 -3.3921e-09 1.14815e-09 3.24849e-09 -1.95168e-09 -7.73091 5.47488 -0.417314 1.14815e-09 3.24849e-09 -1.95169e-09 -2.90554 0.965183 -0.102902 1.14814e-09 3.24849e-09 -1.95169e-09 -10.2786 0.731801 -0.0259123 1.14815e-09 3.24849e-09 -1.95169e-09 -2.22167 -0.733487 0.20892 -2.03217e-16 0.0 -3.88251e-19 7.43441 -9.98231 24.6055 -0.141132 35.0086 1.06172 -17.5676 -16.8423 -38.2469 2.03217e-16 0.0 3.88251e-19 -7.28745 -15.1685 -14.8802 0.169815 27.9018 -0.448938 0.910161 -10.7777 1.07331
51.2361 86.1283 -222.934 8.8383 11.6585 361.04 10.0063 5.8714 -4.18216 1.55248 -8.43651 -0.88039 3.8244 4.60639 1.91701 -21.2364 -17.8018 -0.221595 -0.0 0.0 0.0 -0.0 0.0 0.0 8.06441e-14 -6.93423e-14 -2.9543e-13 80.5729 -3.84324 2.15806 -14.5621 -7.42453 26.676 -0.364005 16.8714 2.44377 1.91545e-09 -4.88908e-09 -1.08993e-10 3.30803e-09 -8.45066e-09 -2.18461e-10 1.91546e-09 -4.88908e-09 -1.08999e-10 7.73091 5.47488 0.417314 1.91545e-09 -4.88908e-09 -1.08995e-10 2.90554 0.965183 0.102902 1.91545e-09 -4.88908e-09 -1.08993e-10 10.2786 0.731801 0.0259123 1.91544e-09 -4.88907e-09 -1.08986e-10 2.22167 -0.733487 -0.20892 8.05866e-14 -6.93096e-14 -2.9562e-13 -72.2041 -7.33735 19.3775 15.2796 -8.03468 -28.1661 0.2506 14.1078 -2.02425 1.10734e-10 2.72659e-09 -2.01971e-09 1.66901e-10 4.71778e-09 -3.4962e-09 1.10731e-10 2.72659e-09 -2.0197e-09 -7.73091 5.47488 -0.417314 1.10735e-10 2.72659e-09 -2.0197e-09 -2.90554 0.965183 -0.102902 1.10724e-10 2.72659e-09 -2.01971e-09 -10.2786 0.731801 -0.0259123 1.10736e-10 2.72659e-09 -2.01971e-09 -2.22167 -0.733487 0.20892 -2.03217e-16 0.0 -3.88251e-19 7.13754 -10.2084 24.2469 -0.147439 35.2301 1.0504 -17.0497 -16.6249 -37.5691 2.03217e-16 0.0 3.88251e-19 -7.36916 -15.1261 -14.5274 0.170397 27.9644 -0.449039 0.918119 -10.7003 1.12509
51.2846 86.1377 -222.812 8.9531 11.3438 360.98 9.89222 5.92429 -4.09131 1.66812 -8.42821 -0.847184 3.85928 4.82555 2.04284 -21.1292 -17.9368 0.032747 -0.0 0.0 0.0 -0.0 0.0 0.0 1.4334e-13 -8.44516e-14 -1.93914e-13 80.5443 -4.77553 1.79129 -14.1781 -7.09906 25.9131 -0.435242 18.4234 2.68331 1.03788e-09 -3.34626e-09 -3.38599e-10 1.78889e-09 -5.7816e-09 -6.03739e-10 1.03789e-09 -3.34626e-09 -3.38605e-10 7.73091 5.47488 0.417314 1.03788e-09 -3.34626e-09 -3.38602e-10 2.90554 0.965183 0.102902 1.03789e-09 -3.34626e-09 -3.38599e-10 10.2786 0.731801 0.0259123 1.03788e-09 -3.34626e-09 -3.38592e-10 2.22167 -0.733487 -0.20892 1.43267e-13 -8.44161e-14 -1.94064e-13 -72.1335 -6.99061 19.5008 15.2476 -8.00653 -28.0998 0.263482 14.4592 -2.07682 -6.39511e-10 2.15921e-09 -1.93603e-09 -1.12898e-09 3.7343e-09 -3.34138e-09 -6.39514e-10 2.15921e-09 -1.93602e-09 -7.73091 5.47488 -0.417314 -6.3951e-10 2.15921e-09 -1.93603e-09 -2.90554 0.965183 -0.102902 -6.39522e-10 2.15921e-09 -1.93603e-09 -10.2786 0.731801 -0.0259123 -6.3951e-10 2.15921e-09 -1.93603e-09 -2.22167 -0.733487 0.20892 -2.03217e-16 0.0 -3.88251e-19 6.81435 -10.442 23.869 -0.153806 35.4571 1.04003 -16.554 -16.4535 -36.8558 2.03217e-16 0.0 3.88251e-19 -7.45198 -15.1005 -14.152 0.171111 28.0377 -0.448988 0.908286 -10.6161 1.10956
51.3359 86.1423 -222.725 9.1365 10.8671 360.978 9.76815 5.98777 -3.95569 1.70934 -8.44423 -0.806625 3.98011 5.08799 2.14191 -21.1001 -18.0497 0.210812 -0.0 0.0 0.0 -0.0 0.0 0.0 1.79595e-13 -7.77673e-14 -1.0548e-13 80.4938 -5.68046 1.3637 -13.8982 -6.86967 25.3561 -0.522165 20.22 2.9644 3.42905e-10 -1.95393e-09 -5.52573e-10 5.84677e-10 -3.37256e-09 -9.6095e-10 3.42914e-10 -1.95393e-09 -5.5258e-10 7.73091 5.47488 0.417314 3.42904e-10 -1.95393e-09 -5.52575e-10 2.90554 0.965183 0.102902 3.42911e-10 -1.95393e-09 -5.52572e-10 10.2786 0.731801 0.0259123 3.42905e-10 -1.95393e-09 -5.52565e-10 2.22167 -0.733487 -0.20892 1.79487e-13 -7.7738e-14 -1.05658e-13 -72.0853 -6.5376 19.5491 15.2176 -7.98002 -28.0378 0.279747 14.8974 -2.14256 -1.09377e-09 1.42295e-09 -1.62277e-09 -1.91036e-09 2.45921e-09 -2.79263e-09 -1.09377e-09 1.42295e-09 -1.62276e-09 -7.73091 5.47488 -0.417314 -1.09377e-09 1.42295e-09 -1.62277e-09 -2.90554 0.965183 -0.102902 -1.09378e-09 1.42295e-09 -1.62277e-09 -10.2786 0.731801 -0.0259123 -1.09377e-09 1.42295e-09 -1.62277e-09 -2.22167 -0.733487 0.20892 -2.03217e-16 0.0 -3.88251e-19 6.43797 -10.6918 23.4525 -0.160246 35.6851 1.03032 -16.0687 -16.3591 -36.0529 2.03217e-16 0.0 3.88251e-19 -7.54072 -15.1011 -13.7274 0.171949 28.1211 -0.448658 0.878 -10.5191 1.01563
51.4046 86.1488 -222.647 9.3257 10.5212 360.951 9.61856 6.05771 -3.78783 1.71388 -8.46987 -0.760001 4.14646 5.38233 2.22287 -21.1062 -18.1508 0.342488 -0.0 0.0 0.0 -0.0 0.0 0.0 2.05947e-13 -5.93834e-14 -1.57723e-14 80.3712 -6.61532 0.901681 -13.6699 -6.68895 24.8973 -0.639909 22.2951 3.29901 -3.32878e-10 -4.88005e-10 -7.76562e-10 -5.86999e-10 -8.36039e-10 -1.33341e-09 -3.32869e-10 -4.88003e-10 -7.76572e-10 7.73091 5.47488 0.417314 -3.3288e-10 -4.88006e-10 -7.76562e-10 2.90554 0.965183 0.102902 -3.32873e-10 -4.88008e-10 -7.7656e-10 10.2786 0.731801 0.0259123 -3.3288e-10 -4.88006e-10 -7.76552e-10 2.22167 -0.733487 -0.20892 2.05786e-13 -5.93666e-14 -1.60208e-14 -72.0841 -5.97219 19.535 15.193 -7.95846 -27.9872 0.299641 15.4084 -2.21963 -1.43335e-09 4.98875e-10 -1.14846e-09 -2.49143e-09 8.59302e-10 -1.96632e-09 -1.43335e-09 4.98877e-10 -1.14845e-09 -7.73091 5.47488 -0.417314 -1.43334e-09 4.98876e-10 -1.14846e-09 -2.90554 0.965183 -0.102902 -1.43335e-09 4.98876e-10 -1.14846e-09 -10.2786 0.731801 -0.0259123 -1.43334e-09 4.98878e-10 -1.14846e-09 -2.22167 -0.733487 0.20892 -2.03217e-16 0.0 -3.88251e-19 6.01621 -10.953 23.0094 -0.166897 35.9215 1.02152 -15.5941 -16.3218 -35.1828 2.03217e-16 0.0 3.88251e-19 -7.63802 -15.1139 -13.261 0.172823 28.2081 -0.447917 0.828655 -10.4153 0.847941
51.4848 86.1546 -222.582 9.497 10.2277 360.913 9.47717 6.13262 -3.62912 1.69438 -8.50818 -0.717433 4.31615 5.67004 2.29612 -21.1072 -18.2069 0.4667 -0.0 0.0 0.0 -0.0 0.0 0.0 2.02052e-13 -3.60793e-14 5.54454e-14 80.1652 -7.5099 0.415607 -13.4851 -6.54621 24.5243 -0.776223 24.3109 3.63681 -8.12999e-10 6.96551e-10 -8.67644e-10 -1.41834e-09 1.21254e-09 -1.47981e-09 -8.12991e-10 6.96553e-10 -8.67655e-10 7.73091 5.47488 0.417314 -8.13001e-10 6.96549e-10 -8.67642e-10 2.90554 0.965183 0.102902 -8.12995e-10 6.96547e-10 -8.67641e-10 10.2786 0.731801 0.0259123 -8.13002e-10 6.96548e-10 -8.67631e-10 2.22167 -0.733487 -0.20892 2.01845e-13 -3.60755e-14 5.51263e-14 -72.1393 -5.26691 19.496 15.1818 -7.94864 -27.9639 0.318992 15.8765 -2.29069 -1.5421e-09 -3.21157e-10 -6.36939e-10 -2.67316e-09 -5.60052e-10 -1.07897e-09 -1.5421e-09 -3.21153e-10 -6.36938e-10 -7.73091 5.47488 -0.417314 -1.5421e-09 -3.21154e-10 -6.36946e-10 -2.90554 0.965183 -0.102902 -1.54211e-09 -3.21155e-10 -6.36943e-10 -10.2786 0.731801 -0.0259123 -1.54209e-09 -3.21152e-10 -6.36949e-10 -2.22167 -0.733487 0.20892 -2.03217e-16 0.0 -3.88251e-19 5.60228 -11.2092 22.5739 -0.17367 36.1706 1.0141 -15.1502 -16.2886 -34.3475 2.03217e-16 0.0 3.88251e-19 -7.72998 -15.1284 -12.8071 0.173816 28.3055 -0.447151 0.766548 -10.3135 0.628227
51.5452 86.1468 -222.54 9.6231 9.8165 360.977 9.37791 6.211 -3.52097 1.66348 -8.56223 -0.689046 4.44702 5.91257 2.37203 -21.0633 -18.1847 0.622343 -0.0 0.0 0.0 -0.0 0.0 0.0 1.47567e-13 -1.46344e-14 8.84095e-14 79.8679 -8.29397 -0.0838167 -13.335 -6.43022 24.2254 -0.902498 25.931 3.91847 -9.20988e-10 1.24478e-09 -6.82894e-10 -1.60156e-09 2.15775e-09 -1.15882e-09 -9.20979e-10 1.24478e-09 -6.82906e-10 7.73091 5.47488 0.417314 -9.2099e-10 1.24478e-09 -6.82891e-10 2.90554 0.965183 0.102902 -9.20984e-10 1.24478e-09 -6.82891e-10 10.2786 0.731801 0.0259123 -9.20992e-10 1.24478e-09 -6.82881e-10 2.22167 -0.733487 -0.20892 1.4734e-13 -1.46382e-14 8.80616e-14 -72.2611 -4.39475 19.47 15.1915 -7.95731 -27.9838 0.332485 16.1858 -2.33792 -1.3039e-09 -7.4528e-10 -2.12063e-10 -2.25654e-09 -1.29348e-09 -3.47128e-10 -1.3039e-09 -7.45276e-10 -2.12063e-10 -7.73091 5.47488 -0.417314 -1.30389e-09 -7.45277e-10 -2.12073e-10 -2.90554 0.965183 -0.102902 -1.3039e-09 -7.45278e-10 -2.12069e-10 -10.2786 0.731801 -0.0259123 -1.30389e-09 -7.45276e-10 -2.12076e-10 -2.22167 -0.733487 0.20892 -2.03217e-16 0.0 -3.88251e-19 5.25041 -11.4439 22.1801 -0.180486 36.4368 1.00853 -14.7592 -16.2072 -33.6499 2.03217e-16 0.0 3.88251e-19 -7.80301 -15.1343 -12.42 0.175014 28.4198 -0.446747 0.697691 -10.2222 0.378166
51.6076 86.155 -222.434 9.6716 9.7618 360.906 9.35672 6.30284 -3.47091 1.60714 -8.64773 -0.676756 4.54236 6.07505 2.45543 -20.9568 -18.0326 0.829074 -0.0 0.0 0.0 -0.0 0.0 0.0 -1.40349e-14 9.59479e-15 6.10502e-14 79.4814 -8.99488 -0.587574 -13.2239 -6.34378 24.0074 -1.00213 27.1378 4.13279 -3.46196e-10 7.49086e-10 8.29626e-11 -5.94049e-10 1.29098e-09 1.49283e-10 -3.46186e-10 7.49085e-10 8.29484e-11 7.73091 5.47488 0.417314 -3.46196e-10 7.49081e-10 8.29655e-11 2.90554 0.965183 0.102902 -3.46192e-10 7.49081e-10 8.29641e-11 10.2786 0.731801 0.0259123 -3.46201e-10 7.49082e-10 8.29722e-11 2.22167 -0.733487 -0.20892 -1.42381e-14 9.59056e-15 6.07446e-14 -72.4477 -3.29786 19.4858 15.2263 -7.98788 -28.0557 0.337403 16.2934 -2.35444 -3.40627e-10 -5.33473e-10 2.00211e-10 -5.87497e-10 -9.24644e-10 3.51419e-10 -3.4063e-10 -5.33469e-10 2.00214e-10 -7.73091 5.47488 -0.417314 -3.40624e-10 -5.33471e-10 2.00203e-10 -2.90554 0.965183 -0.102902 -3.40632e-10 -5.33471e-10 2.00207e-10 -10.2786 0.731801 -0.0259123 -3.40621e-10 -5.33469e-10 2.00201e-10 -2.22167 -0.733487 0.20892 -2.03217e-16 0.0 -3.88251e-19 4.99419 -11.6384 21.8403 -0.186933 36.6995 1.00438 -14.4272 -16.0515 -33.1381 2.03217e-16 0.0 3.88251e-19 -7.84021 -15.1362 -12.1427 0.176698 28.5716 -0.447283 0.623327 -10.156 0.10133
